<?xml version="1.0" encoding="utf-8"?>
<!-- Generator: Adobe Illustrator 16.0.0, SVG Export Plug-In . SVG Version: 6.00 Build 0)  -->
<!DOCTYPE svg PUBLIC "-//W3C//DTD SVG 1.1//EN" "http://www.w3.org/Graphics/SVG/1.1/DTD/svg11.dtd">
<svg version="1.1" id="Layer_1" xmlns="http://www.w3.org/2000/svg" xmlns:xlink="http://www.w3.org/1999/xlink" x="0px" y="0px"
	 width="290.926px" height="50px" viewBox="0 0 290.926 50" enable-background="new 0 0 290.926 50" xml:space="preserve">
<g>
	<defs>
		<path id="SVGID_1_" d="M25.332,38.684c3.063-1.784,5.813-4.028,8.189-6.633c1.139-1.266,2.192-2.621,3.11-4.078
			c1.358,1.511,2.546,3.119,3.459,4.87c0.919,1.762,3.523,9.143-1.574,12.39c-0.77,0.403-1.621,0.596-2.523,0.596
			C32.604,45.829,28.506,43.109,25.332,38.684 M20.571,23.553c-0.04-1.09,0.044-2.481,0.2-3.928
			c0.093,0.006,0.187,0.008,0.281,0.014c1.967,0.134,3.917,0.574,5.773,1.289c1.857,0.715,3.62,1.7,5.252,2.89
			c0.775,0.564,1.52,1.176,2.236,1.823c-0.952,1.439-2.081,2.783-3.317,4.021c-1.426,1.425-2.983,2.731-4.646,3.873
			c-0.972,0.674-1.981,1.293-3.017,1.85C21.675,31.703,20.686,27.629,20.571,23.553 M4.348,33.189
			c-1.751-6.015,3.749-9.943,5.378-10.919c0.412-0.245,0.822-0.463,1.258-0.666c0.449-0.21,0.905-0.403,1.366-0.582
			c0.922-0.36,1.867-0.655,2.828-0.883c1.218-0.287,2.461-0.464,3.709-0.521c-0.306,2.691-0.694,9.62,2.284,16.816
			c-0.021,0.009-0.04,0.019-0.061,0.026c-1.817,0.792-3.708,1.377-5.595,1.637c-0.556,0.102-1.194,0.154-1.877,0.154
			C10.124,38.251,5.408,36.835,4.348,33.189 M33.797,21.515c-1.785-1.363-3.751-2.523-5.857-3.386
			c-2.105-0.866-4.351-1.428-6.635-1.633c-0.033-0.003-0.065-0.005-0.098-0.008c0.331-1.945,0.736-3.667,1.09-4.525
			c0.855-3.217,3.484-9.001,8.014-10.542c2.003-0.739,4.028,0.083,4.757,0.694c0.731,0.605,1.286,1.423,1.694,2.319
			c0.41,0.898,0.683,1.872,0.869,2.866c0.378,1.992,0.431,4.064,0.29,6.113c-0.147,2.049-0.459,4.092-0.97,6.075
			c-0.127,0.494-0.265,0.987-0.415,1.472c-0.079,0.251-0.149,0.469-0.237,0.73c-0.077,0.22-0.16,0.45-0.25,0.671
			c-0.101,0.255-0.211,0.506-0.326,0.758C35.105,22.559,34.463,22.022,33.797,21.515 M26.735,2.223
			C22.341,5.404,20.18,12.498,19.417,16.4c-3.47,0.126-11.15,0.478-16.825,7.423c-1.918,2.345-4.707,9.246-0.027,14.169
			c6.847,7.201,18.089,3.016,20.161,2.063c0.063-0.03,0.126-0.062,0.19-0.093c0.455,0.783,0.951,1.562,1.504,2.331
			c1.603,2.465,5.94,7.592,12.021,7.705c8.2-0.492,10.727-9.432,6.227-18.124c-1.419-2.404-2.588-4.091-4.031-5.761
			c-0.199-0.231-0.402-0.461-0.608-0.687c0.313-0.664,0.595-1.348,0.828-2.058c0.09-0.28,0.172-0.555,0.251-0.846
			c0.065-0.249,0.141-0.544,0.202-0.808c0.131-0.544,0.246-1.088,0.348-1.634c0.4-2.186,0.616-4.393,0.589-6.606
			c-0.033-2.21-0.26-4.431-0.867-6.595c-0.312-1.077-0.722-2.141-1.297-3.137c-0.575-0.988-1.33-1.927-2.334-2.574
			C35.46,0.981,34.108,0,32.076,0C30.604,0,28.775,0.516,26.735,2.223"/>
	</defs>
	<clipPath id="SVGID_2_">
		<use xlink:href="#SVGID_1_"  overflow="visible"/>
	</clipPath>
	
		<linearGradient id="SVGID_3_" gradientUnits="userSpaceOnUse" x1="9.765625e-04" y1="49.9976" x2="1.001" y2="49.9976" gradientTransform="matrix(0 -49.9996 -49.9996 0 2522.3911 49.9995)">
		<stop  offset="0" style="stop-color:#58595B"/>
		<stop  offset="1" style="stop-color:#A7A9AC"/>
	</linearGradient>
	<rect x="-2.115" y="0" clip-path="url(#SVGID_2_)" fill="url(#SVGID_3_)" width="49.283" height="49.999"/>
</g>
<g>
	<defs>
		<rect id="SVGID_4_" y="0" width="290.926" height="50"/>
	</defs>
	<clipPath id="SVGID_5_">
		<use xlink:href="#SVGID_4_"  overflow="visible"/>
	</clipPath>
	<path clip-path="url(#SVGID_5_)" fill="#684287" d="M74.345,44.541c-12.263,0-22.176-8.048-22.176-19.18
		c0-11.128,9.913-19.174,22.176-19.174c4.561,0,8.857,1.225,12.676,3.416v6.416c-4.141-3.248-8.2-4.709-12.676-4.709
		c-9.18,0-16.814,5.685-16.814,14.051c0,8.37,7.634,14.146,16.814,14.146c4.476,0,8.535-1.468,12.676-4.883v6.5
		C83.202,43.408,78.977,44.541,74.345,44.541"/>
	<path clip-path="url(#SVGID_5_)" fill="#684287" d="M119.009,43.326v-7.32h-18.606v7.32h-5.367V32.839
		c0-13.979,4.977-27.381,14.714-27.381c10.468,0,14.617,13.403,14.617,27.381v10.486H119.009z M109.75,11.148
		c-4.402,0-9.347,9.346-9.347,20.15h18.606C119.009,20.494,114.679,11.148,109.75,11.148"/>
	<polygon clip-path="url(#SVGID_5_)" fill="#684287" points="132.476,43.326 132.476,7.411 137.84,7.411 137.84,38.609 
		154.737,38.609 154.737,43.326 	"/>
	<polygon clip-path="url(#SVGID_5_)" fill="#684287" points="171.104,44.541 168.975,44.541 152.813,7.412 158.668,7.412 
		170.042,33.651 181.425,7.412 187.27,7.412 	"/>
	<polygon clip-path="url(#SVGID_5_)" fill="#684287" points="275.978,29.669 275.978,43.326 270.608,43.326 270.608,29.669 
		255.583,7.412 262.082,7.412 273.299,23.982 284.508,7.412 290.926,7.412 	"/>
	<path clip-path="url(#SVGID_5_)" fill="#684287" d="M213.937,43.326v-7.32h-18.604v7.32h-5.369V32.839
		c0-13.979,4.977-27.381,14.714-27.381c10.471,0,14.616,13.403,14.616,27.381v10.486H213.937z M204.678,11.148
		c-4.402,0-9.345,9.346-9.345,20.15h18.604C213.937,20.494,209.611,11.148,204.678,11.148"/>
	<path clip-path="url(#SVGID_5_)" fill="#684287" d="M250.044,43.31h7.127l-13.489-17.1l0.867-0.382
		c4.155-1.834,6.948-5.629,6.948-9.445c0-6.354-4.644-10.623-11.554-10.623h-12.423v37.55h5.48V26.944h4.133L250.044,43.31z
		 M238.08,21.773h-5.079V10.93h5.576c4.58,0,7.313,2.038,7.313,5.453C245.891,19.607,241.854,21.773,238.08,21.773"/>
</g>
</svg>
